<svg width="1113" height="1414" viewBox="0 0 1113 1414" fill="none" xmlns="http://www.w3.org/2000/svg">
<g filter="url(#filter0_d_4_385)">
<path d="M461.067 1304.07C514.241 1292.73 564.706 1253.53 601.216 1202.13C612.062 1186.8 621.885 1170.42 630.585 1153.15C651.108 1112.55 665.624 1067.34 675.493 1020.94C683.767 981.804 688.862 941.831 690.7 901.618C692.406 864.59 691.449 827.79 691.618 791.414C691.78 741.466 694.104 692.26 707.881 645.094C715.212 620.451 725.252 597.106 737.715 575.727C762.666 532.547 796.007 496.193 830.074 463.182C841.281 452.37 852.552 441.708 863.826 430.988C904.037 392.649 943.932 353.315 973.206 302.74C977.269 295.726 981.081 288.446 984.642 280.899C1013.68 219.067 1023.78 140.575 994.968 81.566L1048.79 96.0536C1089.91 156.241 1083.55 249.945 1052.97 320.765C1022.39 391.585 972.248 446.154 926.254 503.189C880.26 560.224 835.938 625.185 822.645 703.423C808.086 789.214 833.21 876.067 834.976 963.245C836.759 1050.68 814.913 1137 772.88 1208.61C730.848 1280.23 671.017 1333.06 602.813 1358.79L461.067 1304.07Z" fill="#5238DF"/>
<path d="M319.309 1249.33C373.603 1246.29 426.485 1204.28 461.048 1149.58C471.297 1133.26 480.379 1115.9 488.191 1097.68C506.645 1055 518.791 1008.04 528.096 960.641C535.827 920.733 541.912 880.409 546.327 839.825C550.486 802.471 553.455 765.48 558.103 729.204C564.376 679.587 573.92 631.237 593.042 586.63C603.148 563.21 615.633 541.433 630.186 521.838C659.582 482.165 696.333 451.004 733.807 423.024C746.112 413.863 758.406 404.906 770.786 395.91C814.767 363.807 858.867 330.541 893.439 284.803C898.265 278.433 902.872 271.789 907.261 264.87C943.001 208.225 962.107 131.502 941.164 67.1527L995 81.6409C1023.83 140.651 1013.73 219.142 984.674 280.974C981.129 288.512 977.317 295.792 973.238 302.815C943.932 353.315 904.037 392.649 863.783 430.912C852.509 441.633 841.191 452.292 830.03 463.106C795.964 496.118 762.623 532.472 737.671 575.651C725.208 597.031 715.168 620.375 707.838 645.019C694.061 692.184 691.737 741.391 691.574 791.339C691.406 827.715 692.363 864.5 690.657 901.543C688.819 941.756 683.724 981.729 675.449 1020.86C665.576 1067.34 651.061 1112.55 630.541 1153.08C621.841 1170.34 612.018 1186.72 601.172 1202.05C564.71 1253.46 514.247 1292.61 461.023 1303.99L319.309 1249.33Z" fill="#750C9B"/>
<path d="M177.504 1194.6C232.917 1199.87 288.219 1155 320.881 1097.03C330.541 1079.72 338.882 1061.37 345.796 1042.22C362.171 997.439 371.934 948.735 380.694 900.432C388.058 859.69 394.873 818.569 401.949 778.12C408.562 740.439 415.47 703.228 424.595 667.082C436.98 617.782 453.719 570.301 478.2 528.224C491.087 506.094 506.038 485.89 522.736 468.042C556.554 431.844 596.75 405.892 637.63 382.944C651.032 375.448 664.419 368.245 677.812 360.924C725.556 334.954 773.789 307.78 813.696 266.852C819.277 261.126 824.68 255.118 829.903 248.827C872.309 197.353 900.431 122.428 887.277 52.7496L941.112 67.2377C962.102 131.589 942.997 208.298 907.209 264.955C902.829 271.864 898.221 278.509 893.387 284.888C858.815 330.626 814.762 363.895 770.734 395.995C758.437 404.996 746.013 413.946 733.755 423.109C696.281 451.089 659.53 482.25 630.135 521.923C615.581 541.518 603.097 563.295 592.99 586.715C573.868 631.322 564.324 679.672 558.051 729.289C553.401 765.608 550.434 802.556 546.275 839.91C541.86 880.494 535.775 920.818 528.044 960.726C518.739 1008.12 506.593 1055.08 488.139 1097.76C480.328 1115.98 471.245 1133.35 460.997 1149.66C426.433 1204.37 373.551 1246.39 319.257 1249.41L177.504 1194.6Z" fill="#EB20DE"/>
<path d="M35.7924 1139.88C92.3373 1153.45 150.044 1105.78 180.82 1044.48C211.596 983.175 221.727 910.477 233.388 840.212C246.718 759.885 263.005 679.58 291.171 604.949C319.337 530.319 360.234 461.145 415.191 414.24C466.014 370.865 526.066 348.501 584.791 325.922C643.516 303.342 703.371 279.052 752.499 232.781C801.627 186.511 838.766 113.369 833.441 38.2616L887.277 52.7497C900.43 122.442 872.308 197.368 829.879 248.84C824.663 255.141 819.26 261.15 813.672 266.866C773.765 307.794 725.532 334.967 677.787 360.938C664.397 368.2 650.937 375.458 637.606 382.957C596.702 405.889 556.554 431.844 522.736 468.042C506.042 485.891 491.095 506.095 478.211 528.224C453.731 570.302 436.992 617.782 424.607 667.082C415.485 703.17 408.575 740.411 401.961 778.12C394.885 818.57 388.07 859.691 380.706 900.432C371.969 948.737 362.182 997.455 345.808 1042.22C338.921 1061.37 330.607 1079.72 320.976 1097.03C288.261 1155.09 232.964 1199.87 177.504 1194.6L35.7924 1139.88Z" fill="url(#paint0_linear_4_385)"/>
<g style="mix-blend-mode:overlay" opacity="0.8">
<g style="mix-blend-mode:overlay">
<path d="M461.067 1304.07C514.241 1292.73 564.706 1253.53 601.216 1202.13C612.062 1186.8 621.885 1170.42 630.585 1153.15C651.108 1112.55 665.624 1067.34 675.493 1020.94C683.767 981.804 688.862 941.831 690.7 901.618C692.406 864.59 691.449 827.79 691.618 791.414C691.78 741.466 694.104 692.26 707.881 645.094C715.212 620.451 725.252 597.106 737.715 575.727C762.666 532.547 796.007 496.193 830.074 463.182C841.281 452.37 852.552 441.708 863.826 430.988C904.037 392.649 943.932 353.315 973.206 302.74C977.269 295.726 981.081 288.446 984.642 280.899C1013.68 219.067 1023.78 140.575 994.968 81.566L1048.79 96.0536C1089.91 156.241 1083.55 249.945 1052.97 320.765C1022.39 391.585 972.248 446.154 926.254 503.189C880.26 560.224 835.938 625.185 822.645 703.423C808.086 789.214 833.21 876.067 834.976 963.245C836.759 1050.68 814.913 1137 772.88 1208.61C730.848 1280.23 671.017 1333.06 602.813 1358.79L461.067 1304.07Z" fill="white"/>
</g>
<g style="mix-blend-mode:overlay">
<path d="M319.309 1249.33C373.603 1246.29 426.485 1204.28 461.048 1149.58C471.297 1133.26 480.379 1115.9 488.191 1097.68C506.645 1055 518.791 1008.04 528.096 960.641C535.827 920.733 541.912 880.409 546.327 839.825C550.486 802.471 553.455 765.48 558.103 729.204C564.376 679.587 573.92 631.237 593.042 586.63C603.148 563.21 615.633 541.433 630.186 521.838C659.582 482.165 696.333 451.004 733.807 423.024C746.112 413.863 758.406 404.906 770.786 395.91C814.767 363.807 858.867 330.541 893.439 284.803C898.265 278.433 902.872 271.789 907.261 264.87C943.001 208.225 962.107 131.502 941.164 67.1527L995 81.6409C1023.83 140.651 1013.73 219.142 984.674 280.974C981.129 288.512 977.317 295.792 973.238 302.815C943.932 353.315 904.037 392.649 863.783 430.912C852.509 441.633 841.191 452.292 830.03 463.106C795.964 496.118 762.623 532.472 737.671 575.651C725.208 597.031 715.168 620.375 707.838 645.019C694.061 692.184 691.737 741.391 691.574 791.339C691.406 827.715 692.363 864.5 690.657 901.543C688.819 941.756 683.724 981.729 675.449 1020.86C665.576 1067.34 651.061 1112.55 630.541 1153.08C621.841 1170.34 612.018 1186.72 601.172 1202.05C564.71 1253.46 514.247 1292.61 461.023 1303.99L319.309 1249.33Z" fill="white"/>
</g>
<g style="mix-blend-mode:overlay">
<path d="M177.504 1194.6C232.917 1199.87 288.219 1155 320.881 1097.03C330.541 1079.72 338.882 1061.37 345.796 1042.22C362.171 997.439 371.934 948.735 380.694 900.432C388.058 859.69 394.873 818.569 401.949 778.12C408.562 740.439 415.47 703.228 424.595 667.082C436.98 617.782 453.719 570.301 478.2 528.224C491.087 506.094 506.038 485.89 522.736 468.042C556.554 431.844 596.75 405.892 637.63 382.944C651.032 375.448 664.419 368.245 677.812 360.924C725.556 334.954 773.789 307.78 813.696 266.852C819.277 261.126 824.68 255.118 829.903 248.827C872.309 197.353 900.431 122.428 887.277 52.7496L941.112 67.2377C962.102 131.589 942.997 208.298 907.209 264.955C902.829 271.864 898.221 278.509 893.387 284.888C858.815 330.626 814.762 363.895 770.734 395.995C758.437 404.996 746.013 413.946 733.755 423.109C696.281 451.089 659.53 482.25 630.135 521.923C615.581 541.518 603.097 563.295 592.99 586.715C573.868 631.322 564.324 679.672 558.051 729.289C553.401 765.608 550.434 802.556 546.275 839.91C541.86 880.494 535.775 920.818 528.044 960.726C518.739 1008.12 506.593 1055.08 488.139 1097.76C480.328 1115.98 471.245 1133.35 460.997 1149.66C426.433 1204.37 373.551 1246.39 319.257 1249.41L177.504 1194.6Z" fill="white"/>
</g>
<g style="mix-blend-mode:overlay">
<path d="M35.7924 1139.88C92.3373 1153.45 150.044 1105.78 180.82 1044.48C211.596 983.175 221.727 910.477 233.388 840.212C246.718 759.885 263.005 679.58 291.171 604.949C319.337 530.319 360.234 461.145 415.191 414.24C466.014 370.865 526.066 348.501 584.791 325.922C643.516 303.342 703.371 279.052 752.499 232.781C801.627 186.511 838.766 113.369 833.441 38.2616L887.277 52.7497C900.43 122.442 872.308 197.368 829.879 248.84C824.663 255.141 819.26 261.15 813.672 266.866C773.765 307.794 725.532 334.967 677.787 360.938C664.397 368.2 650.937 375.458 637.606 382.957C596.702 405.889 556.554 431.844 522.736 468.042C506.042 485.891 491.095 506.095 478.211 528.224C453.731 570.302 436.992 617.782 424.607 667.082C415.485 703.17 408.575 740.411 401.961 778.12C394.885 818.57 388.07 859.691 380.706 900.432C371.969 948.737 362.182 997.455 345.808 1042.22C338.921 1061.37 330.607 1079.72 320.976 1097.03C288.261 1155.09 232.964 1199.87 177.504 1194.6L35.7924 1139.88Z" fill="white"/>
</g>
</g>
</g>
<defs>
<filter id="filter0_d_4_385" x="0.79245" y="23.2615" width="1111.98" height="1390.53" filterUnits="userSpaceOnUse" color-interpolation-filters="sRGB">
<feFlood flood-opacity="0" result="BackgroundImageFix"/>
<feColorMatrix in="SourceAlpha" type="matrix" values="0 0 0 0 0 0 0 0 0 0 0 0 0 0 0 0 0 0 127 0" result="hardAlpha"/>
<feOffset dy="20"/>
<feGaussianBlur stdDeviation="17.5"/>
<feComposite in2="hardAlpha" operator="out"/>
<feColorMatrix type="matrix" values="0 0 0 0 0 0 0 0 0 0 0 0 0 0 0 0 0 0 0.5 0"/>
<feBlend mode="normal" in2="BackgroundImageFix" result="effect1_dropShadow_4_385"/>
<feBlend mode="normal" in="SourceGraphic" in2="effect1_dropShadow_4_385" result="shape"/>
</filter>
<linearGradient id="paint0_linear_4_385" x1="793.95" y1="-105.437" x2="28.2567" y2="1056.95" gradientUnits="userSpaceOnUse">
<stop offset="0.12" stop-color="#FC678E"/>
<stop offset="0.15" stop-color="#FC618A"/>
<stop offset="0.19" stop-color="#FC507D"/>
<stop offset="0.23" stop-color="#FB3469"/>
<stop offset="0.31" stop-color="#FB3066"/>
<stop offset="0.38" stop-color="#FB245D"/>
<stop offset="0.45" stop-color="#FA114F"/>
<stop offset="0.5" stop-color="#FA0042"/>
<stop offset="0.77" stop-color="#FB3368"/>
<stop offset="0.83" stop-color="#FB2D64"/>
<stop offset="0.91" stop-color="#FB1D57"/>
<stop offset="0.99" stop-color="#FA0243"/>
<stop offset="1" stop-color="#FA0042"/>
</linearGradient>
</defs>
</svg>
